<svg width="16" height="16" viewBox="0 0 16 16" fill="none" xmlns="http://www.w3.org/2000/svg">
<path fill-rule="evenodd" clip-rule="evenodd" d="M0.666504 8.00002C0.666504 3.94993 3.94975 0.666687 7.99984 0.666687C12.0499 0.666687 15.3332 3.94993 15.3332 8.00002C15.3332 12.0501 12.0499 15.3334 7.99984 15.3334C3.94975 15.3334 0.666504 12.0501 0.666504 8.00002Z" fill="#08AD36"/>
<path fill-rule="evenodd" clip-rule="evenodd" d="M11.5403 5.362C11.8007 5.62235 11.8007 6.04446 11.5403 6.30481L7.40223 10.6381C7.14188 10.8985 6.71977 10.8985 6.45942 10.6381L4.45942 8.63814C4.19907 8.37779 4.19907 7.95568 4.45942 7.69533C4.71977 7.43498 5.14188 7.43498 5.40223 7.69533L6.93083 9.22393L10.5975 5.362C10.8578 5.10165 11.28 5.10165 11.5403 5.362Z" fill="white"/>
</svg>
