<svg width="20" height="18" viewBox="0 0 20 18" fill="none" xmlns="http://www.w3.org/2000/svg">
<path d="M18.3333 11.5V4C18.3333 2.61929 17.214 1.5 15.8333 1.5H9.16663C7.78591 1.5 6.66663 2.61929 6.66663 4V14M18.3333 11.5H9.16663C7.78591 11.5 6.66663 12.6193 6.66663 14M18.3333 11.5V14C18.3333 15.3807 17.214 16.5 15.8333 16.5H9.16663C7.78591 16.5 6.66663 15.3807 6.66663 14M9.99996 4.83333H15M9.99996 8.16667H12.5M1.66663 4.83333H4.16663M2.91663 16.5L3.49996 15.7222C3.9327 15.1452 4.16663 14.4435 4.16663 13.7222V2.75C4.16663 2.05964 3.60698 1.5 2.91663 1.5C2.22627 1.5 1.66663 2.05964 1.66663 2.75V13.7222C1.66663 14.4435 1.90055 15.1452 2.33329 15.7222L2.91663 16.5Z" stroke="white" stroke-width="1.5" stroke-linecap="round" stroke-linejoin="round"/>
</svg>
