<svg xmlns="http://www.w3.org/2000/svg" width="120.93048128614964" height="126.34759356925167" style=""><rect id="backgroundrect" width="100%" height="100%" x="0" y="0" fill="none" stroke="none" style="" class=""/><defs><style>.a,
            .b {
                fill: none;
                stroke: #979797;
                stroke-width: 1.5px;
            }

            .b {
                stroke-linecap: round;
                stroke-linejoin: round;
            }</style></defs><g class="currentLayer" style=""><title>Layer 1</title><path class="a default_cursor_cs" d="M59.88375992388302,2.7381130453810396 a31.734623692690384,31.239584804296133 0 0 1 15.891499821720718,4.1906760103324086 h0 l25.397374144302518,14.44116477424208 a31.734623692690384,31.239584804296133 0 0 1 15.867311846345192,27.060814123538538 h0 V77.34881349070264 A31.734623692690384,31.239584804296133 0 0 1 101.14844591453073,104.39772228466637 h0 l-25.397374144302518,14.44116477424208 a31.770905655753673,31.27530079302056 0 0 1 -31.770905655753673,0 h0 l-25.397374144302518,-14.44116477424208 A31.746717680378147,31.251490133870945 0 0 1 2.7638560745778786,77.34881349070264 h0 V48.43076795349406 A31.746717680378147,31.251490133870945 0 0 1 18.619073933235306,21.369953829955527 h0 l25.397374144302518,-14.44116477424208 A31.68624774193933,31.191963485996904 0 0 1 59.88375992388302,2.7381130453810396 z" id="svg_1"/><path d="M4.386931912384033,27.208556175231934 H58.39572191238403 H112.40472191238403 C97.36112191238404,15.906156175231933 78.66052191238403,9.208556175231934 58.39572191238403,9.208556175231934 C38.130821912384036,9.208556175231934 19.430321912384034,15.906156175231933 4.386931912384033,27.208556175231934 z" fill="#FFEEDD" fill-opacity="0.66" id="svg_9" class="default_cursor_cs"><animate id="aa" repeatCount="indefinite" fill="restart" attributeName="d" dur="2400ms" calcMode="spline" keySplines="0.66 0.17 0.66 0.83; 0.66 0.17 0.66 0.83" values="M5.99121 24H60H114.009C98.9654 12.6976 80.2648 6 60 6C39.7351 6 21.0346 12.6976 5.99121 24Z;M5.99121 96H60H114.009C98.9654 108.7 80.2648 114 60 114C39.7351 114 21.0346 108.7 5.99121 96Z;M5.99121 24H60H114.009C98.9654 12.6976 80.2648 6 60 6C39.7351 6 21.0346 12.6976 5.99121 24Z"/></path><path d="M4.386931912384033,27.208556175231934 C19.430321912384034,15.906156175231933 38.130821912384036,9.208556175231934 58.39572191238403,9.208556175231934 C78.66052191238403,9.208556175231934 97.36112191238404,15.906156175231933 112.40472191238403,27.208556175231934 " fill="none" stroke="#F68156" stroke-width="2" stroke-linecap="round" id="svg_10" class="default_cursor_cs"><animate id="bb" repeatCount="indefinite" fill="restart" attributeName="d" dur="2400ms" calcMode="spline" keySplines="0.66 0.17 0.66 0.83; 0.66 0.17 0.66 0.83" values="M5.99121 24C21.0346 12.6976 39.7351 6 60 6C80.2648 6 98.9654 12.6976 114.009 24;M5.99121 96C21.0346 108.7 39.7351 114 60 114C80.2648 114 98.9654 108.7 114.009 96;M5.99121 24C21.0346 12.6976 39.7351 6 60 6C80.2648 6 98.9654 12.6976 114.009 24"/></path></g></svg>