<svg xmlns="http://www.w3.org/2000/svg" viewBox="0 0 118 121"><defs><style>.a,
            .b {
                fill: none;
                stroke: #979797;
                stroke-width: 1.5px;
            }

            .b {
                stroke-linecap: round;
                stroke-linejoin: round;
            }</style></defs><path class="a" d="M58.55,9.69a26.24,26.24,0,0,1,13.14,3.52h0l21,12.13a26.24,26.24,0,0,1,13.12,22.73h0V72.36A26.24,26.24,0,0,1,92.67,95.08h0l-21,12.13a26.27,26.27,0,0,1-26.27,0h0l-21-12.13A26.25,26.25,0,0,1,11.32,72.36h0V48.07A26.25,26.25,0,0,1,24.43,25.34h0l21-12.13A26.2,26.2,0,0,1,58.55,9.69Z"/><path class="a" d="M58.55,27.52h0A18.94,18.94,0,0,1,77.49,46.46v7.61A18.94,18.94,0,0,1,58.55,73h0A18.94,18.94,0,0,1,39.61,54.07V46.46A18.94,18.94,0,0,1,58.55,27.52Z"/><path class="a" d="M51.36,71.56q-2.79,14.93-12.75,17.7t-12.2,6.93"/><path class="a" d="M65.74,71.56q2.81,14.93,12.76,17.7t12.2,6.93"/><path class="b" d="M14.64,1.52h-1A12.55,12.55,0,0,0,1.05,14.07h0"/><path class="b" d="M116.58,14.59v-1A12.55,12.55,0,0,0,104,1h0"/><path class="b" d="M103.51,119.66h1a12.54,12.54,0,0,0,12.54-12.54h0"/><path class="b" d="M1.57,106.6v1a12.55,12.55,0,0,0,12.55,12.55h0"/><path d="M5.99121 24H60H114.009C98.9654 12.6976 80.2648 6 60 6C39.7351 6 21.0346 12.6976 5.99121 24Z" fill="#FFEEDD" fill-opacity="0.66"><animate id="aa" repeatCount="indefinite" fill="restart" attributeName="d" dur="2400ms" calcMode="spline" keySplines="0.66 0.17 0.66 0.83; 0.66 0.17 0.66 0.83" values="M5.99121 24H60H114.009C98.9654 12.6976 80.2648 6 60 6C39.7351 6 21.0346 12.6976 5.99121 24Z;M5.99121 96H60H114.009C98.9654 108.7 80.2648 114 60 114C39.7351 114 21.0346 108.7 5.99121 96Z;M5.99121 24H60H114.009C98.9654 12.6976 80.2648 6 60 6C39.7351 6 21.0346 12.6976 5.99121 24Z"/></path><path d="M5.99121 24C21.0346 12.6976 39.7351 6 60 6C80.2648 6 98.9654 12.6976 114.009 24" fill="none" stroke="#F68156" stroke-width="2" stroke-linecap="round"><animate id="bb" repeatCount="indefinite" fill="restart" attributeName="d" dur="2400ms" calcMode="spline" keySplines="0.66 0.17 0.66 0.83; 0.66 0.17 0.66 0.83" values="M5.99121 24C21.0346 12.6976 39.7351 6 60 6C80.2648 6 98.9654 12.6976 114.009 24;M5.99121 96C21.0346 108.7 39.7351 114 60 114C80.2648 114 98.9654 108.7 114.009 96;M5.99121 24C21.0346 12.6976 39.7351 6 60 6C80.2648 6 98.9654 12.6976 114.009 24"/></path></svg>