<svg width="884" height="800" viewBox="0 0 884 800" fill="none" xmlns="http://www.w3.org/2000/svg">
<g opacity="0.3">
<path fill-rule="evenodd" clip-rule="evenodd" d="M348.899 636.766C304.849 684.218 231.097 688.169 182.23 645.694L-383.261 154.173C-438.828 105.875 -438.2 19.3882 -381.937 -28.0987L115.075 -447.589C163.434 -488.406 235.179 -484.654 279.017 -439.015L743.906 44.9673C787.968 90.8388 788.584 163.121 745.31 209.737L348.899 636.766Z" fill="#B2EBF2"/>
<path fill-rule="evenodd" clip-rule="evenodd" d="M348.433 719.084C304.547 768.671 228.79 773.337 179.151 729.512L-390.083 226.955C-443.845 179.491 -444.244 95.7776 -390.937 47.8022L120.472 -412.463C169.718 -456.784 245.564 -452.809 289.907 -403.584L748.903 105.951C789.755 151.3 790.057 220.09 749.605 265.796L348.433 719.084Z" fill="#BBDEFB"/>
</g>
</svg>
